<svg width="50" height="50" viewBox="0 0 50 50" fill="none" xmlns="http://www.w3.org/2000/svg">
<g filter="url(#filter0_d_53_6528)">
<path d="M35.4188 41.6666H12.5021C11.397 41.6666 10.3372 41.2277 9.55584 40.4463C8.77444 39.6649 8.33545 38.605 8.33545 37.5V14.5833C8.33545 13.4782 8.77444 12.4184 9.55584 11.637C10.3372 10.8556 11.397 10.4166 12.5021 10.4166H20.8354V14.5833H12.5021V37.5H35.4188V29.1666H39.5854V37.5C39.5854 38.605 39.1465 39.6649 38.3651 40.4463C37.5837 41.2277 36.5238 41.6666 35.4188 41.6666ZM24.3771 28.5562L21.4396 25.6104L34.55 12.5H27.0854V8.33331H41.6688V22.9166H37.5021V15.4479L24.3771 28.5562Z" fill="white"/>
</g>
<defs>
<filter id="filter0_d_53_6528" x="-4" y="0" width="58" height="58" filterUnits="userSpaceOnUse" color-interpolation-filters="sRGB">
<feFlood flood-opacity="0" result="BackgroundImageFix"/>
<feColorMatrix in="SourceAlpha" type="matrix" values="0 0 0 0 0 0 0 0 0 0 0 0 0 0 0 0 0 0 127 0" result="hardAlpha"/>
<feOffset dy="4"/>
<feGaussianBlur stdDeviation="2"/>
<feComposite in2="hardAlpha" operator="out"/>
<feColorMatrix type="matrix" values="0 0 0 0 0 0 0 0 0 0 0 0 0 0 0 0 0 0 0.25 0"/>
<feBlend mode="normal" in2="BackgroundImageFix" result="effect1_dropShadow_53_6528"/>
<feBlend mode="normal" in="SourceGraphic" in2="effect1_dropShadow_53_6528" result="shape"/>
</filter>
</defs>
</svg>
